M48
; DRILL file {KiCad 8.0.1} date 2024-04-19T12:23:30+0700
; FORMAT={-:-/ absolute / inch / decimal}
; #@! TF.CreationDate,2024-04-19T12:23:30+07:00
; #@! TF.GenerationSoftware,Kicad,Pcbnew,8.0.1
; #@! TF.FileFunction,Plated,1,2,PTH
FMAT,2
INCH
; #@! TA.AperFunction,Plated,PTH,ViaDrill
T1C0.0157
; #@! TA.AperFunction,Plated,PTH,ComponentDrill
T2C0.0295
; #@! TA.AperFunction,Plated,PTH,ComponentDrill
T3C0.0300
; #@! TA.AperFunction,Plated,PTH,ComponentDrill
T4C0.0315
; #@! TA.AperFunction,Plated,PTH,ComponentDrill
T5C0.0354
; #@! TA.AperFunction,Plated,PTH,ComponentDrill
T6C0.0394
; #@! TA.AperFunction,Plated,PTH,ComponentDrill
T7C0.0402
; #@! TA.AperFunction,Plated,PTH,ComponentDrill
T8C0.0433
; #@! TA.AperFunction,Plated,PTH,ComponentDrill
T9C0.0591
%
G90
G05
T1
X2.922Y-3.2764
X2.9614Y-3.1583
X2.9614Y-3.5717
X3.0008Y-3.6898
X3.9316Y-2.5733
X4.4614Y-4.6385
X5.3921Y-3.522
X5.4315Y-3.6402
X5.4315Y-4.0535
X5.4709Y-3.9354
T2
X3.1441Y-3.6004
X3.1441Y-3.6504
X3.1441Y-3.7004
X5.2488Y-3.5114
X5.2488Y-3.5614
X5.2488Y-3.6114
T3
X3.2597Y-2.516
X3.2597Y-2.616
X3.2597Y-2.716
X3.2597Y-2.816
X5.1332Y-4.3958
X5.1332Y-4.4958
X5.1332Y-4.5958
X5.1332Y-4.6958
T4
X2.8652Y-3.1925
X2.8652Y-3.4925
X5.5278Y-3.7193
X5.5278Y-4.0193
T5
X2.9085Y-3.6348
X2.9085Y-3.7348
X3.0905Y-3.25
X3.0905Y-3.35
X3.0905Y-3.45
X3.8799Y-5.1768
X3.9799Y-5.1768
X4.413Y-2.035
X4.513Y-2.035
X5.3024Y-3.7618
X5.3024Y-3.8618
X5.3024Y-3.9618
X5.4844Y-3.477
X5.4844Y-3.577
T6
X3.5042Y-2.574
X3.5042Y-2.674
X3.5042Y-2.774
X3.5042Y-2.874
X3.5042Y-2.974
X4.8887Y-4.2378
X4.8887Y-4.3378
X4.8887Y-4.4378
X4.8887Y-4.5378
X4.8887Y-4.6378
T7
X2.9902Y-3.9366
X2.9902Y-4.9366
X3.0902Y-3.9366
X3.0902Y-4.9366
X3.1902Y-3.9366
X3.1902Y-4.9366
X3.2902Y-3.9366
X3.2902Y-4.9366
X3.3902Y-3.9366
X3.3902Y-4.9366
X3.4902Y-3.9366
X3.4902Y-4.9366
X3.5902Y-3.9366
X3.5902Y-4.9366
X3.6902Y-3.9366
X3.6902Y-4.9366
X3.7902Y-3.9366
X3.7902Y-4.9366
X3.8902Y-3.9366
X3.8902Y-4.9366
X3.9902Y-3.9366
X3.9902Y-4.9366
X4.0028Y-2.2752
X4.0028Y-3.2752
X4.0902Y-3.9366
X4.0902Y-4.9366
X4.1028Y-2.2752
X4.1028Y-3.2752
X4.1902Y-3.9366
X4.1902Y-4.9366
X4.2028Y-2.2752
X4.2028Y-3.2752
X4.2902Y-3.9366
X4.2902Y-4.9366
X4.3028Y-2.2752
X4.3028Y-3.2752
X4.3902Y-3.9366
X4.3902Y-4.9366
X4.4028Y-2.2752
X4.4028Y-3.2752
X4.5028Y-2.2752
X4.5028Y-3.2752
X4.6028Y-2.2752
X4.6028Y-3.2752
X4.7028Y-2.2752
X4.7028Y-3.2752
X4.8028Y-2.2752
X4.8028Y-3.2752
X4.9028Y-2.2752
X4.9028Y-3.2752
X5.0028Y-2.2752
X5.0028Y-3.2752
X5.1028Y-2.2752
X5.1028Y-3.2752
X5.2028Y-2.2752
X5.2028Y-3.2752
X5.3028Y-2.2752
X5.3028Y-3.2752
X5.4028Y-2.2752
X5.4028Y-3.2752
T8
X3.7791Y-1.9484
X3.7791Y-2.1256
X4.035Y-1.9484
X4.035Y-2.1256
X4.3579Y-5.0862
X4.3579Y-5.2634
X4.6138Y-5.0862
X4.6138Y-5.2634
T9
X3.862Y-3.4962
X4.012Y-3.4962
X4.3809Y-3.7156
X4.5309Y-3.7156
M30
