%TF.GenerationSoftware,KiCad,Pcbnew,8.0.1*%
%TF.CreationDate,2024-04-19T12:23:10+07:00*%
%TF.ProjectId,AC_controller_print,41435f63-6f6e-4747-926f-6c6c65725f70,v3.0*%
%TF.SameCoordinates,Original*%
%TF.FileFunction,Soldermask,Top*%
%TF.FilePolarity,Negative*%
%FSLAX46Y46*%
G04 Gerber Fmt 4.6, Leading zero omitted, Abs format (unit mm)*
G04 Created by KiCad (PCBNEW 8.0.1) date 2024-04-19 12:23:10*
%MOMM*%
%LPD*%
G01*
G04 APERTURE LIST*
G04 Aperture macros list*
%AMRoundRect*
0 Rectangle with rounded corners*
0 $1 Rounding radius*
0 $2 $3 $4 $5 $6 $7 $8 $9 X,Y pos of 4 corners*
0 Add a 4 corners polygon primitive as box body*
4,1,4,$2,$3,$4,$5,$6,$7,$8,$9,$2,$3,0*
0 Add four circle primitives for the rounded corners*
1,1,$1+$1,$2,$3*
1,1,$1+$1,$4,$5*
1,1,$1+$1,$6,$7*
1,1,$1+$1,$8,$9*
0 Add four rect primitives between the rounded corners*
20,1,$1+$1,$2,$3,$4,$5,0*
20,1,$1+$1,$4,$5,$6,$7,0*
20,1,$1+$1,$6,$7,$8,$9,0*
20,1,$1+$1,$8,$9,$2,$3,0*%
G04 Aperture macros list end*
%ADD10C,2.700000*%
%ADD11R,1.800000X1.800000*%
%ADD12C,1.800000*%
%ADD13RoundRect,0.102000X1.000000X-1.000000X1.000000X1.000000X-1.000000X1.000000X-1.000000X-1.000000X0*%
%ADD14C,2.204000*%
%ADD15C,2.000000*%
%ADD16C,1.600000*%
%ADD17O,1.600000X1.600000*%
%ADD18R,3.000000X3.000000*%
%ADD19C,1.524000*%
%ADD20O,1.700000X1.700000*%
%ADD21R,1.700000X1.700000*%
%ADD22R,1.500000X1.050000*%
%ADD23O,1.500000X1.050000*%
%ADD24RoundRect,0.250200X-0.649800X0.649800X-0.649800X-0.649800X0.649800X-0.649800X0.649800X0.649800X0*%
%ADD25RoundRect,0.102000X-1.000000X1.000000X-1.000000X-1.000000X1.000000X-1.000000X1.000000X1.000000X0*%
%ADD26RoundRect,0.250200X0.649800X-0.649800X0.649800X0.649800X-0.649800X0.649800X-0.649800X-0.649800X0*%
%ADD27C,0.500000*%
G04 APERTURE END LIST*
D10*
%TO.C,REF\u002A\u002A*%
X90090000Y-87590000D03*
%TD*%
D11*
%TO.C,D2*%
X114630000Y-51690000D03*
D12*
X112090000Y-51690000D03*
%TD*%
D13*
%TO.C,U1*%
X101670000Y-83190000D03*
D14*
X104210000Y-83190000D03*
X106750000Y-83190000D03*
X109290000Y-83190000D03*
X111830000Y-83190000D03*
X114370000Y-83190000D03*
X116910000Y-83190000D03*
X119450000Y-83190000D03*
X121990000Y-83190000D03*
X124530000Y-83190000D03*
X127070000Y-83190000D03*
X129610000Y-83190000D03*
X132150000Y-83190000D03*
X134690000Y-83190000D03*
X137230000Y-83190000D03*
X137230000Y-57790000D03*
X134690000Y-57790000D03*
X132150000Y-57790000D03*
X129610000Y-57790000D03*
X127070000Y-57790000D03*
X124530000Y-57790000D03*
X121990000Y-57790000D03*
X119450000Y-57790000D03*
X116910000Y-57790000D03*
X114370000Y-57790000D03*
X111830000Y-57790000D03*
X109290000Y-57790000D03*
X106750000Y-57790000D03*
X104210000Y-57790000D03*
X101670000Y-57790000D03*
%TD*%
D10*
%TO.C,REF\u002A\u002A*%
X90090000Y-50590000D03*
%TD*%
%TO.C,REF\u002A\u002A*%
X140090000Y-50590000D03*
%TD*%
D15*
%TO.C,SW1*%
X102490000Y-53990000D03*
X95990000Y-53990000D03*
X102490000Y-49490000D03*
X95990000Y-49490000D03*
%TD*%
D16*
%TO.C,R1*%
X140405000Y-102090000D03*
D17*
X140405000Y-94470000D03*
%TD*%
D18*
%TO.C,U5*%
X98095954Y-88802929D03*
X101905954Y-88802929D03*
%TD*%
D19*
%TO.C,U2*%
X130383000Y-111653000D03*
X130383000Y-114193000D03*
X130383000Y-116733000D03*
X130383000Y-119273000D03*
%TD*%
D20*
%TO.C,U4*%
X89007500Y-75540000D03*
X89007500Y-73000000D03*
X89007500Y-70460000D03*
X89007500Y-67920000D03*
D21*
X89007500Y-65380000D03*
%TD*%
D22*
%TO.C,Q1*%
X133320000Y-91730000D03*
D23*
X133320000Y-90460000D03*
X133320000Y-89190000D03*
%TD*%
D24*
%TO.C,U3*%
X134682103Y-95550000D03*
D12*
X134682103Y-98090000D03*
X134682103Y-100630000D03*
%TD*%
D11*
%TO.C,D1*%
X139305000Y-88315000D03*
D12*
X139305000Y-90855000D03*
%TD*%
D10*
%TO.C,REF\u002A\u002A*%
X140090000Y-107090000D03*
%TD*%
%TO.C,REF\u002A\u002A*%
X123090000Y-95590000D03*
%TD*%
D12*
%TO.C,D2*%
X101090000Y-131490000D03*
D11*
X98550000Y-131490000D03*
%TD*%
D14*
%TO.C,U1*%
X111510000Y-125390000D03*
X108970000Y-125390000D03*
X106430000Y-125390000D03*
X103890000Y-125390000D03*
X101350000Y-125390000D03*
X98810000Y-125390000D03*
X96270000Y-125390000D03*
X93730000Y-125390000D03*
X91190000Y-125390000D03*
X88650000Y-125390000D03*
X86110000Y-125390000D03*
X83570000Y-125390000D03*
X81030000Y-125390000D03*
X78490000Y-125390000D03*
X75950000Y-125390000D03*
X75950000Y-99990000D03*
X78490000Y-99990000D03*
X81030000Y-99990000D03*
X83570000Y-99990000D03*
X86110000Y-99990000D03*
X88650000Y-99990000D03*
X91190000Y-99990000D03*
X93730000Y-99990000D03*
X96270000Y-99990000D03*
X98810000Y-99990000D03*
X101350000Y-99990000D03*
X103890000Y-99990000D03*
X106430000Y-99990000D03*
X108970000Y-99990000D03*
D25*
X111510000Y-99990000D03*
%TD*%
D10*
%TO.C,REF\u002A\u002A*%
X123090000Y-132590000D03*
%TD*%
%TO.C,REF\u002A\u002A*%
X73090000Y-132590000D03*
%TD*%
D15*
%TO.C,SW1*%
X117190000Y-133690000D03*
X110690000Y-133690000D03*
X117190000Y-129190000D03*
X110690000Y-129190000D03*
%TD*%
D17*
%TO.C,R1*%
X72775000Y-88710000D03*
D16*
X72775000Y-81090000D03*
%TD*%
D18*
%TO.C,U5*%
X111274046Y-94377071D03*
X115084046Y-94377071D03*
%TD*%
D19*
%TO.C,U2*%
X82797000Y-63907000D03*
X82797000Y-66447000D03*
X82797000Y-68987000D03*
X82797000Y-71527000D03*
%TD*%
D21*
%TO.C,U4*%
X124172500Y-117800000D03*
D20*
X124172500Y-115260000D03*
X124172500Y-112720000D03*
X124172500Y-110180000D03*
X124172500Y-107640000D03*
%TD*%
D23*
%TO.C,Q1*%
X79860000Y-93990000D03*
X79860000Y-92720000D03*
D22*
X79860000Y-91450000D03*
%TD*%
D12*
%TO.C,U3*%
X78497897Y-82550000D03*
X78497897Y-85090000D03*
D26*
X78497897Y-87630000D03*
%TD*%
D12*
%TO.C,D1*%
X73875000Y-92325000D03*
D11*
X73875000Y-94865000D03*
%TD*%
D10*
%TO.C,REF\u002A\u002A*%
X73090000Y-76090000D03*
%TD*%
D27*
%TO.C,mouse-bite-2mm-slot*%
X68340000Y-44340000D03*
X69840000Y-44340000D03*
X68340000Y-43590000D03*
X69840000Y-43590000D03*
X68340000Y-42840000D03*
X69840000Y-42840000D03*
%TD*%
%TO.C,mouse-bite-2mm-slot*%
X143340000Y-44340000D03*
X144840000Y-44340000D03*
X143340000Y-43590000D03*
X144840000Y-43590000D03*
X143340000Y-42840000D03*
X144840000Y-42840000D03*
%TD*%
%TO.C,mouse-bite-2mm-slot*%
X114340000Y-45840000D03*
X114340000Y-47340000D03*
X115090000Y-45840000D03*
X115090000Y-47340000D03*
X115840000Y-45840000D03*
X115840000Y-47340000D03*
%TD*%
%TO.C,mouse-bite-2mm-slot*%
X97340000Y-135840000D03*
X97340000Y-137340000D03*
X98090000Y-135840000D03*
X98090000Y-137340000D03*
X98840000Y-135840000D03*
X98840000Y-137340000D03*
%TD*%
%TO.C,mouse-bite-2mm-slot*%
X143340000Y-85340000D03*
X144840000Y-85340000D03*
X143340000Y-84590000D03*
X144840000Y-84590000D03*
X143340000Y-83840000D03*
X144840000Y-83840000D03*
%TD*%
%TO.C,mouse-bite-2mm-slot*%
X143340000Y-140340000D03*
X144840000Y-140340000D03*
X143340000Y-139590000D03*
X144840000Y-139590000D03*
X143340000Y-138840000D03*
X144840000Y-138840000D03*
%TD*%
%TO.C,mouse-bite-2mm-slot*%
X68340000Y-140340000D03*
X69840000Y-140340000D03*
X68340000Y-139590000D03*
X69840000Y-139590000D03*
X68340000Y-138840000D03*
X69840000Y-138840000D03*
%TD*%
%TO.C,mouse-bite-2mm-slot*%
X85350000Y-76340000D03*
X86850000Y-76340000D03*
X85350000Y-75590000D03*
X86850000Y-75590000D03*
X85350000Y-74840000D03*
X86850000Y-74840000D03*
%TD*%
%TO.C,mouse-bite-2mm-slot*%
X68340000Y-99340000D03*
X69840000Y-99340000D03*
X68340000Y-98590000D03*
X69840000Y-98590000D03*
X68340000Y-97840000D03*
X69840000Y-97840000D03*
%TD*%
%TO.C,mouse-bite-2mm-slot*%
X126350000Y-108340000D03*
X127850000Y-108340000D03*
X126350000Y-107590000D03*
X127850000Y-107590000D03*
X126350000Y-106840000D03*
X127850000Y-106840000D03*
%TD*%
%TO.C,mouse-bite-2mm-slot*%
X105840000Y-90840000D03*
X105840000Y-92340000D03*
X106590000Y-90840000D03*
X106590000Y-92340000D03*
X107340000Y-90840000D03*
X107340000Y-92340000D03*
%TD*%
M02*
