%TF.GenerationSoftware,KiCad,Pcbnew,8.0.1*%
%TF.CreationDate,2024-04-19T12:23:10+07:00*%
%TF.ProjectId,AC_controller_print,41435f63-6f6e-4747-926f-6c6c65725f70,v3.0*%
%TF.SameCoordinates,Original*%
%TF.FileFunction,Profile,NP*%
%FSLAX46Y46*%
G04 Gerber Fmt 4.6, Leading zero omitted, Abs format (unit mm)*
G04 Created by KiCad (PCBNEW 8.0.1) date 2024-04-19 12:23:10*
%MOMM*%
%LPD*%
G01*
G04 APERTURE LIST*
%TA.AperFunction,Profile*%
%ADD10C,0.200000*%
%TD*%
G04 APERTURE END LIST*
D10*
X113090000Y-47590000D02*
X90090000Y-47590000D01*
X117090000Y-47590000D02*
X140090000Y-47590000D01*
X108590000Y-90590000D02*
X125090000Y-90590000D01*
X90090000Y-90590000D02*
X104590000Y-90590000D01*
X87090000Y-50590000D02*
X87090000Y-73590000D01*
X85090000Y-77590000D02*
X85090000Y-89590000D01*
X85090000Y-61590000D02*
X85090000Y-73590000D01*
X88090000Y-92590000D02*
X104590000Y-92590000D01*
X123090000Y-92590000D02*
X108590000Y-92590000D01*
X126090000Y-109590000D02*
X126090000Y-132590000D01*
X126090000Y-95590000D02*
X126090000Y-105590000D01*
X100090000Y-135590000D02*
X123090000Y-135590000D01*
X73090000Y-135590000D02*
X96090000Y-135590000D01*
X70090000Y-96590000D02*
X70090000Y-61590000D01*
X70090000Y-100590000D02*
X70090000Y-132590000D01*
X68090000Y-100590000D02*
G75*
G02*
X70090000Y-100590000I1000000J0D01*
G01*
X70090000Y-96590000D02*
G75*
G02*
X68090000Y-96590000I-1000000J0D01*
G01*
X125090000Y-90590000D02*
G75*
G02*
X128090000Y-93590000I0J-3000000D01*
G01*
X143090000Y-121590000D02*
X128090000Y-121590000D01*
X90090000Y-90590000D02*
G75*
G02*
X87090000Y-87590000I10J3000010D01*
G01*
X87090000Y-50590000D02*
G75*
G02*
X90090000Y-47590000I2999998J2D01*
G01*
X140090000Y-47590000D02*
G75*
G02*
X143090000Y-50590000I4J-2999996D01*
G01*
X88090000Y-92590000D02*
G75*
G02*
X85090000Y-89590000I0J3000000D01*
G01*
X70090000Y-61590000D02*
X85090000Y-61590000D01*
X123090000Y-92590000D02*
G75*
G02*
X126090000Y-95590000I-10J-3000010D01*
G01*
X126090000Y-132590000D02*
G75*
G02*
X123090000Y-135590000I-2999998J-2D01*
G01*
X73090000Y-135590000D02*
G75*
G02*
X70090000Y-132590000I-4J2999996D01*
G01*
X70090000Y-137590000D02*
G75*
G02*
X68090000Y-137590000I-1000000J0D01*
G01*
X128090000Y-105590000D02*
G75*
G02*
X126090000Y-105590000I-1000000J0D01*
G01*
X68090000Y-141590000D02*
X63340000Y-141590000D01*
X145090000Y-137590000D02*
X145090000Y-86590000D01*
X143090000Y-121590000D02*
X143090000Y-86590000D01*
X128090000Y-121590000D02*
X128090000Y-109590000D01*
X117090000Y-47590000D02*
G75*
G02*
X117090000Y-45590000I0J1000000D01*
G01*
X68090000Y-45590000D02*
G75*
G02*
X70090000Y-45590000I1000000J0D01*
G01*
X100090000Y-137590000D02*
X143090000Y-137590000D01*
X87090000Y-77590000D02*
X87090000Y-87590000D01*
X85090000Y-77590000D02*
G75*
G02*
X87090000Y-77590000I1000000J0D01*
G01*
X143090000Y-141590000D02*
G75*
G02*
X145090000Y-141590000I1000000J0D01*
G01*
X68090000Y-45590000D02*
X68090000Y-96590000D01*
X70090000Y-45590000D02*
X113090000Y-45590000D01*
X68090000Y-137590000D02*
X68090000Y-100590000D01*
X149840000Y-141590000D02*
X145090000Y-141590000D01*
X145090000Y-41590000D02*
G75*
G02*
X143090000Y-41590000I-1000000J0D01*
G01*
X117090000Y-45590000D02*
X143090000Y-45590000D01*
X143090000Y-50590000D02*
X143090000Y-82590000D01*
X70090000Y-141590000D02*
X143090000Y-141590000D01*
X96090000Y-135590000D02*
G75*
G02*
X96090000Y-137590000I0J-1000000D01*
G01*
X143090000Y-86590000D02*
G75*
G02*
X145090000Y-86590000I1000000J0D01*
G01*
X108590000Y-92590000D02*
G75*
G02*
X108590000Y-90590000I0J1000000D01*
G01*
X70090000Y-137590000D02*
X96090000Y-137590000D01*
X128090000Y-105590000D02*
X128090000Y-93590000D01*
X68090000Y-141590000D02*
G75*
G02*
X70090000Y-141590000I1000000J0D01*
G01*
X143090000Y-45590000D02*
G75*
G02*
X145090000Y-45590000I1000000J0D01*
G01*
X100090000Y-137590000D02*
G75*
G02*
X100090000Y-135590000I0J1000000D01*
G01*
X63340000Y-41590000D02*
X63340000Y-141590000D01*
X70090000Y-41590000D02*
G75*
G02*
X68090000Y-41590000I-1000000J0D01*
G01*
X68090000Y-41590000D02*
X63340000Y-41590000D01*
X87090000Y-73590000D02*
G75*
G02*
X85090000Y-73590000I-1000000J0D01*
G01*
X145090000Y-82590000D02*
X145090000Y-45590000D01*
X145090000Y-137590000D02*
G75*
G02*
X143090000Y-137590000I-1000000J0D01*
G01*
X145090000Y-82590000D02*
G75*
G02*
X143090000Y-82590000I-1000000J0D01*
G01*
X149840000Y-41590000D02*
X149840000Y-141590000D01*
X113090000Y-45590000D02*
G75*
G02*
X113090000Y-47590000I0J-1000000D01*
G01*
X104590000Y-90590000D02*
G75*
G02*
X104590000Y-92590000I0J-1000000D01*
G01*
X149840000Y-41590000D02*
X145090000Y-41590000D01*
X70090000Y-41590000D02*
X143090000Y-41590000D01*
X126090000Y-109590000D02*
G75*
G02*
X128090000Y-109590000I1000000J0D01*
G01*
M02*
