M48
; DRILL file {KiCad 8.0.1} date 2024-04-19T12:23:30+0700
; FORMAT={-:-/ absolute / inch / decimal}
; #@! TF.CreationDate,2024-04-19T12:23:30+07:00
; #@! TF.GenerationSoftware,Kicad,Pcbnew,8.0.1
; #@! TF.FileFunction,NonPlated,1,2,NPTH
FMAT,2
INCH
; #@! TA.AperFunction,NonPlated,NPTH,ComponentDrill
T1C0.0197
; #@! TA.AperFunction,NonPlated,NPTH,ComponentDrill
T2C0.1063
%
G90
G05
T1
X2.6906Y-1.6866
X2.6906Y-1.7161
X2.6906Y-1.7457
X2.6906Y-3.852
X2.6906Y-3.8815
X2.6906Y-3.911
X2.6906Y-5.4661
X2.6906Y-5.4957
X2.6906Y-5.5252
X2.7496Y-1.6866
X2.7496Y-1.7161
X2.7496Y-1.7457
X2.7496Y-3.852
X2.7496Y-3.8815
X2.7496Y-3.911
X2.7496Y-5.4661
X2.7496Y-5.4957
X2.7496Y-5.5252
X3.3602Y-2.9465
X3.3602Y-2.976
X3.3602Y-3.0055
X3.4193Y-2.9465
X3.4193Y-2.976
X3.4193Y-3.0055
X3.8323Y-5.348
X3.8323Y-5.4071
X3.8618Y-5.348
X3.8618Y-5.4071
X3.8913Y-5.348
X3.8913Y-5.4071
X4.1669Y-3.5764
X4.1669Y-3.6354
X4.1965Y-3.5764
X4.1965Y-3.6354
X4.226Y-3.5764
X4.226Y-3.6354
X4.5016Y-1.8047
X4.5016Y-1.8638
X4.5311Y-1.8047
X4.5311Y-1.8638
X4.5606Y-1.8047
X4.5606Y-1.8638
X4.9744Y-4.2063
X4.9744Y-4.2358
X4.9744Y-4.2654
X5.0335Y-4.2063
X5.0335Y-4.2358
X5.0335Y-4.2654
X5.6433Y-1.6866
X5.6433Y-1.7161
X5.6433Y-1.7457
X5.6433Y-3.3008
X5.6433Y-3.3303
X5.6433Y-3.3598
X5.6433Y-5.4661
X5.6433Y-5.4957
X5.6433Y-5.5252
X5.7024Y-1.6866
X5.7024Y-1.7161
X5.7024Y-1.7457
X5.7024Y-3.3008
X5.7024Y-3.3303
X5.7024Y-3.3598
X5.7024Y-5.4661
X5.7024Y-5.4957
X5.7024Y-5.5252
T2
X2.8776Y-2.9957
X2.8776Y-5.2201
X3.5469Y-1.9917
X3.5469Y-3.4484
X4.8461Y-3.7634
X4.8461Y-5.2201
X5.5154Y-1.9917
X5.5154Y-4.2161
M30
