%TF.GenerationSoftware,KiCad,Pcbnew,8.0.1*%
%TF.CreationDate,2024-04-19T12:23:10+07:00*%
%TF.ProjectId,AC_controller_print,41435f63-6f6e-4747-926f-6c6c65725f70,v3.0*%
%TF.SameCoordinates,Original*%
%TF.FileFunction,Copper,L1,Top*%
%TF.FilePolarity,Positive*%
%FSLAX46Y46*%
G04 Gerber Fmt 4.6, Leading zero omitted, Abs format (unit mm)*
G04 Created by KiCad (PCBNEW 8.0.1) date 2024-04-19 12:23:10*
%MOMM*%
%LPD*%
G01*
G04 APERTURE LIST*
G04 Aperture macros list*
%AMRoundRect*
0 Rectangle with rounded corners*
0 $1 Rounding radius*
0 $2 $3 $4 $5 $6 $7 $8 $9 X,Y pos of 4 corners*
0 Add a 4 corners polygon primitive as box body*
4,1,4,$2,$3,$4,$5,$6,$7,$8,$9,$2,$3,0*
0 Add four circle primitives for the rounded corners*
1,1,$1+$1,$2,$3*
1,1,$1+$1,$4,$5*
1,1,$1+$1,$6,$7*
1,1,$1+$1,$8,$9*
0 Add four rect primitives between the rounded corners*
20,1,$1+$1,$2,$3,$4,$5,0*
20,1,$1+$1,$4,$5,$6,$7,0*
20,1,$1+$1,$6,$7,$8,$9,0*
20,1,$1+$1,$8,$9,$2,$3,0*%
G04 Aperture macros list end*
%TA.AperFunction,ComponentPad*%
%ADD10R,1.800000X1.800000*%
%TD*%
%TA.AperFunction,ComponentPad*%
%ADD11C,1.800000*%
%TD*%
%TA.AperFunction,ComponentPad*%
%ADD12R,2.000000X2.000000*%
%TD*%
%TA.AperFunction,ComponentPad*%
%ADD13C,2.000000*%
%TD*%
%TA.AperFunction,ComponentPad*%
%ADD14C,1.600000*%
%TD*%
%TA.AperFunction,ComponentPad*%
%ADD15O,1.600000X1.600000*%
%TD*%
%TA.AperFunction,ComponentPad*%
%ADD16R,3.000000X3.000000*%
%TD*%
%TA.AperFunction,ComponentPad*%
%ADD17C,1.524000*%
%TD*%
%TA.AperFunction,ComponentPad*%
%ADD18O,1.700000X1.700000*%
%TD*%
%TA.AperFunction,ComponentPad*%
%ADD19R,1.700000X1.700000*%
%TD*%
%TA.AperFunction,ComponentPad*%
%ADD20R,1.500000X1.050000*%
%TD*%
%TA.AperFunction,ComponentPad*%
%ADD21O,1.500000X1.050000*%
%TD*%
%TA.AperFunction,ComponentPad*%
%ADD22RoundRect,0.250200X-0.649800X0.649800X-0.649800X-0.649800X0.649800X-0.649800X0.649800X0.649800X0*%
%TD*%
%TA.AperFunction,ComponentPad*%
%ADD23RoundRect,0.250200X0.649800X-0.649800X0.649800X0.649800X-0.649800X0.649800X-0.649800X-0.649800X0*%
%TD*%
%TA.AperFunction,ViaPad*%
%ADD24C,0.800000*%
%TD*%
%TA.AperFunction,Conductor*%
%ADD25C,0.500000*%
%TD*%
%TA.AperFunction,Conductor*%
%ADD26C,0.250000*%
%TD*%
G04 APERTURE END LIST*
D10*
%TO.P,D2,1,K*%
%TO.N,D14*%
X114630000Y-51690000D03*
D11*
%TO.P,D2,2,A*%
%TO.N,GND*%
X112090000Y-51690000D03*
%TD*%
D12*
%TO.P,U1,1,3V3*%
%TO.N,+3.3V*%
X101670000Y-83190000D03*
D13*
%TO.P,U1,2,GND*%
%TO.N,GND*%
X104210000Y-83190000D03*
%TO.P,U1,3,D15*%
%TO.N,D15*%
X106750000Y-83190000D03*
%TO.P,U1,4,D2*%
%TO.N,D2*%
X109290000Y-83190000D03*
%TO.P,U1,5,D4*%
%TO.N,D4*%
X111830000Y-83190000D03*
%TO.P,U1,6,RX2*%
%TO.N,RX2*%
X114370000Y-83190000D03*
%TO.P,U1,7,TX2*%
%TO.N,TX2*%
X116910000Y-83190000D03*
%TO.P,U1,8,D5*%
%TO.N,D5*%
X119450000Y-83190000D03*
%TO.P,U1,9,D18*%
%TO.N,D18*%
X121990000Y-83190000D03*
%TO.P,U1,10,D19*%
%TO.N,D19*%
X124530000Y-83190000D03*
%TO.P,U1,11,D21*%
%TO.N,D21*%
X127070000Y-83190000D03*
%TO.P,U1,12,RX0*%
%TO.N,RX0*%
X129610000Y-83190000D03*
%TO.P,U1,13,TX0*%
%TO.N,TX0*%
X132150000Y-83190000D03*
%TO.P,U1,14,D22*%
%TO.N,D22*%
X134690000Y-83190000D03*
%TO.P,U1,15,D23*%
%TO.N,D23*%
X137230000Y-83190000D03*
%TO.P,U1,16,EN*%
%TO.N,EN*%
X137230000Y-57790000D03*
%TO.P,U1,17,VP*%
%TO.N,VP*%
X134690000Y-57790000D03*
%TO.P,U1,18,VN*%
%TO.N,VN*%
X132150000Y-57790000D03*
%TO.P,U1,19,D34*%
%TO.N,D34*%
X129610000Y-57790000D03*
%TO.P,U1,20,D35*%
%TO.N,D35*%
X127070000Y-57790000D03*
%TO.P,U1,21,D32*%
%TO.N,D32*%
X124530000Y-57790000D03*
%TO.P,U1,22,D33*%
%TO.N,D33*%
X121990000Y-57790000D03*
%TO.P,U1,23,D25*%
%TO.N,D25*%
X119450000Y-57790000D03*
%TO.P,U1,24,D26*%
%TO.N,D26*%
X116910000Y-57790000D03*
%TO.P,U1,25,D27*%
%TO.N,D27*%
X114370000Y-57790000D03*
%TO.P,U1,26,D14*%
%TO.N,D14*%
X111830000Y-57790000D03*
%TO.P,U1,27,D12*%
%TO.N,D12*%
X109290000Y-57790000D03*
%TO.P,U1,28,D13*%
%TO.N,D13*%
X106750000Y-57790000D03*
%TO.P,U1,29,GND*%
%TO.N,GND*%
X104210000Y-57790000D03*
%TO.P,U1,30,VIN*%
%TO.N,VCC*%
X101670000Y-57790000D03*
%TD*%
%TO.P,SW1,1,1*%
%TO.N,D13*%
X102490000Y-53990000D03*
X95990000Y-53990000D03*
%TO.P,SW1,2,2*%
%TO.N,GND*%
X102490000Y-49490000D03*
X95990000Y-49490000D03*
%TD*%
D14*
%TO.P,R1,1*%
%TO.N,D19*%
X140405000Y-102090000D03*
D15*
%TO.P,R1,2*%
%TO.N,Net-(Q1-B)*%
X140405000Y-94470000D03*
%TD*%
D16*
%TO.P,U5,3,OUT+*%
%TO.N,VCC*%
X98095954Y-88802929D03*
%TO.P,U5,4,OUT-*%
%TO.N,GND*%
X101905954Y-88802929D03*
%TD*%
D17*
%TO.P,U2,1,VIN*%
%TO.N,VCC*%
X130383000Y-111653000D03*
%TO.P,U2,2,GND*%
%TO.N,GND*%
X130383000Y-114193000D03*
%TO.P,U2,3,SCL*%
%TO.N,D22*%
X130383000Y-116733000D03*
%TO.P,U2,4,SDA*%
%TO.N,D21*%
X130383000Y-119273000D03*
%TD*%
D18*
%TO.P,U4,1,GND*%
%TO.N,GND*%
X89007500Y-75540000D03*
%TO.P,U4,2,SDA*%
%TO.N,D21*%
X89007500Y-73000000D03*
%TO.P,U4,3,SCL*%
%TO.N,D22*%
X89007500Y-70460000D03*
%TO.P,U4,4,ALERT*%
%TO.N,unconnected-(U4-ALERT-Pad4)*%
X89007500Y-67920000D03*
D19*
%TO.P,U4,5,3.3V*%
%TO.N,+3.3V*%
X89007500Y-65380000D03*
%TD*%
D20*
%TO.P,Q1,1,C*%
%TO.N,GND*%
X133320000Y-91730000D03*
D21*
%TO.P,Q1,2,B*%
%TO.N,Net-(Q1-B)*%
X133320000Y-90460000D03*
%TO.P,Q1,3,E*%
%TO.N,Net-(D1-K)*%
X133320000Y-89190000D03*
%TD*%
D22*
%TO.P,U3,1,OUT*%
%TO.N,D18*%
X134682103Y-95550000D03*
D11*
%TO.P,U3,2,GND*%
%TO.N,GND*%
X134682103Y-98090000D03*
%TO.P,U3,3,Vs*%
%TO.N,VCC*%
X134682103Y-100630000D03*
%TD*%
D10*
%TO.P,D1,1,K*%
%TO.N,Net-(D1-K)*%
X139305000Y-88315000D03*
D11*
%TO.P,D1,2,A*%
%TO.N,VCC*%
X139305000Y-90855000D03*
%TD*%
%TO.P,D2,2,A*%
%TO.N,GND*%
X101090000Y-131490000D03*
D10*
%TO.P,D2,1,K*%
%TO.N,D14*%
X98550000Y-131490000D03*
%TD*%
D13*
%TO.P,U1,30,VIN*%
%TO.N,VCC*%
X111510000Y-125390000D03*
%TO.P,U1,29,GND*%
%TO.N,GND*%
X108970000Y-125390000D03*
%TO.P,U1,28,D13*%
%TO.N,D13*%
X106430000Y-125390000D03*
%TO.P,U1,27,D12*%
%TO.N,D12*%
X103890000Y-125390000D03*
%TO.P,U1,26,D14*%
%TO.N,D14*%
X101350000Y-125390000D03*
%TO.P,U1,25,D27*%
%TO.N,D27*%
X98810000Y-125390000D03*
%TO.P,U1,24,D26*%
%TO.N,D26*%
X96270000Y-125390000D03*
%TO.P,U1,23,D25*%
%TO.N,D25*%
X93730000Y-125390000D03*
%TO.P,U1,22,D33*%
%TO.N,D33*%
X91190000Y-125390000D03*
%TO.P,U1,21,D32*%
%TO.N,D32*%
X88650000Y-125390000D03*
%TO.P,U1,20,D35*%
%TO.N,D35*%
X86110000Y-125390000D03*
%TO.P,U1,19,D34*%
%TO.N,D34*%
X83570000Y-125390000D03*
%TO.P,U1,18,VN*%
%TO.N,VN*%
X81030000Y-125390000D03*
%TO.P,U1,17,VP*%
%TO.N,VP*%
X78490000Y-125390000D03*
%TO.P,U1,16,EN*%
%TO.N,EN*%
X75950000Y-125390000D03*
%TO.P,U1,15,D23*%
%TO.N,D23*%
X75950000Y-99990000D03*
%TO.P,U1,14,D22*%
%TO.N,D22*%
X78490000Y-99990000D03*
%TO.P,U1,13,TX0*%
%TO.N,TX0*%
X81030000Y-99990000D03*
%TO.P,U1,12,RX0*%
%TO.N,RX0*%
X83570000Y-99990000D03*
%TO.P,U1,11,D21*%
%TO.N,D21*%
X86110000Y-99990000D03*
%TO.P,U1,10,D19*%
%TO.N,D19*%
X88650000Y-99990000D03*
%TO.P,U1,9,D18*%
%TO.N,D18*%
X91190000Y-99990000D03*
%TO.P,U1,8,D5*%
%TO.N,D5*%
X93730000Y-99990000D03*
%TO.P,U1,7,TX2*%
%TO.N,TX2*%
X96270000Y-99990000D03*
%TO.P,U1,6,RX2*%
%TO.N,RX2*%
X98810000Y-99990000D03*
%TO.P,U1,5,D4*%
%TO.N,D4*%
X101350000Y-99990000D03*
%TO.P,U1,4,D2*%
%TO.N,D2*%
X103890000Y-99990000D03*
%TO.P,U1,3,D15*%
%TO.N,D15*%
X106430000Y-99990000D03*
%TO.P,U1,2,GND*%
%TO.N,GND*%
X108970000Y-99990000D03*
D12*
%TO.P,U1,1,3V3*%
%TO.N,+3.3V*%
X111510000Y-99990000D03*
%TD*%
D13*
%TO.P,SW1,2,2*%
%TO.N,GND*%
X117190000Y-133690000D03*
X110690000Y-133690000D03*
%TO.P,SW1,1,1*%
%TO.N,D13*%
X117190000Y-129190000D03*
X110690000Y-129190000D03*
%TD*%
D15*
%TO.P,R1,2*%
%TO.N,Net-(Q1-B)*%
X72775000Y-88710000D03*
D14*
%TO.P,R1,1*%
%TO.N,D19*%
X72775000Y-81090000D03*
%TD*%
D16*
%TO.P,U5,4,OUT-*%
%TO.N,GND*%
X111274046Y-94377071D03*
%TO.P,U5,3,OUT+*%
%TO.N,VCC*%
X115084046Y-94377071D03*
%TD*%
D17*
%TO.P,U2,4,SDA*%
%TO.N,D21*%
X82797000Y-63907000D03*
%TO.P,U2,3,SCL*%
%TO.N,D22*%
X82797000Y-66447000D03*
%TO.P,U2,2,GND*%
%TO.N,GND*%
X82797000Y-68987000D03*
%TO.P,U2,1,VIN*%
%TO.N,VCC*%
X82797000Y-71527000D03*
%TD*%
D19*
%TO.P,U4,5,3.3V*%
%TO.N,+3.3V*%
X124172500Y-117800000D03*
D18*
%TO.P,U4,4,ALERT*%
%TO.N,unconnected-(U4-ALERT-Pad4)*%
X124172500Y-115260000D03*
%TO.P,U4,3,SCL*%
%TO.N,D22*%
X124172500Y-112720000D03*
%TO.P,U4,2,SDA*%
%TO.N,D21*%
X124172500Y-110180000D03*
%TO.P,U4,1,GND*%
%TO.N,GND*%
X124172500Y-107640000D03*
%TD*%
D21*
%TO.P,Q1,3,E*%
%TO.N,Net-(D1-K)*%
X79860000Y-93990000D03*
%TO.P,Q1,2,B*%
%TO.N,Net-(Q1-B)*%
X79860000Y-92720000D03*
D20*
%TO.P,Q1,1,C*%
%TO.N,GND*%
X79860000Y-91450000D03*
%TD*%
D11*
%TO.P,U3,3,Vs*%
%TO.N,VCC*%
X78497897Y-82550000D03*
%TO.P,U3,2,GND*%
%TO.N,GND*%
X78497897Y-85090000D03*
D23*
%TO.P,U3,1,OUT*%
%TO.N,D18*%
X78497897Y-87630000D03*
%TD*%
D11*
%TO.P,D1,2,A*%
%TO.N,VCC*%
X73875000Y-92325000D03*
D10*
%TO.P,D1,1,K*%
%TO.N,Net-(D1-K)*%
X73875000Y-94865000D03*
%TD*%
D24*
%TO.N,D22*%
X136960000Y-89460000D03*
%TO.N,D21*%
X137960000Y-92460000D03*
X137960000Y-102960000D03*
%TO.N,+3.3V*%
X99861658Y-65361658D03*
%TO.N,VCC*%
X138960000Y-99960000D03*
%TO.N,D22*%
X76220000Y-93720000D03*
%TO.N,D21*%
X75220000Y-90720000D03*
X75220000Y-80220000D03*
%TO.N,+3.3V*%
X113318342Y-117818342D03*
%TO.N,VCC*%
X74220000Y-83220000D03*
%TD*%
D25*
%TO.N,VCC*%
X131227103Y-100630000D02*
X133187103Y-102590000D01*
X133187103Y-102590000D02*
X136330000Y-102590000D01*
X136330000Y-102590000D02*
X138960000Y-99960000D01*
D26*
%TO.N,D13*%
X102490000Y-53990000D02*
X104990000Y-53990000D01*
D25*
%TO.N,VCC*%
X98095954Y-85460000D02*
X98095954Y-61364046D01*
%TO.N,+3.3V*%
X99861658Y-65361658D02*
X101670000Y-67170000D01*
X101670000Y-67170000D02*
X101670000Y-83190000D01*
D26*
%TO.N,D18*%
X134682103Y-95550000D02*
X132550000Y-95550000D01*
%TO.N,D13*%
X106750000Y-55750000D02*
X106750000Y-57790000D01*
%TO.N,D19*%
X127667292Y-84960000D02*
X125460000Y-84960000D01*
%TO.N,D18*%
X130960000Y-90460000D02*
X126459684Y-85959684D01*
%TO.N,D21*%
X136090000Y-90590000D02*
X136090000Y-88090000D01*
X137960000Y-102960000D02*
X137960000Y-111696000D01*
%TO.N,D19*%
X132960000Y-93460000D02*
X131960000Y-92460000D01*
X135960000Y-93460000D02*
X132960000Y-93460000D01*
X140405000Y-97905000D02*
X135960000Y-93460000D01*
%TO.N,D18*%
X121990000Y-83990000D02*
X121990000Y-83190000D01*
%TO.N,D19*%
X140405000Y-102090000D02*
X140405000Y-97905000D01*
%TO.N,D21*%
X133590000Y-85590000D02*
X129470000Y-85590000D01*
X136090000Y-88090000D02*
X133590000Y-85590000D01*
%TO.N,D19*%
X125460000Y-84960000D02*
X124530000Y-84030000D01*
D25*
%TO.N,VCC*%
X105035000Y-87035000D02*
X103460000Y-85460000D01*
X129960000Y-90960000D02*
X126035000Y-87035000D01*
D26*
%TO.N,D22*%
X136960000Y-85460000D02*
X134690000Y-83190000D01*
%TO.N,D18*%
X123959684Y-85959684D02*
X121990000Y-83990000D01*
D25*
%TO.N,VCC*%
X103460000Y-85460000D02*
X98095954Y-85460000D01*
X130383000Y-111653000D02*
X129960000Y-111230000D01*
D26*
%TO.N,Net-(Q1-B)*%
X134460000Y-90460000D02*
X133320000Y-90460000D01*
X140405000Y-94470000D02*
X138470000Y-94470000D01*
%TO.N,D18*%
X126459684Y-85959684D02*
X123959684Y-85959684D01*
%TO.N,D21*%
X137960000Y-92460000D02*
X136090000Y-90590000D01*
%TO.N,Net-(Q1-B)*%
X138470000Y-94470000D02*
X134460000Y-90460000D01*
%TO.N,D14*%
X114630000Y-51690000D02*
X114630000Y-54990000D01*
D25*
%TO.N,VCC*%
X131220000Y-100630000D02*
X129960000Y-99370000D01*
X126035000Y-87035000D02*
X105035000Y-87035000D01*
X138960000Y-99960000D02*
X138957103Y-99960000D01*
X129960000Y-111230000D02*
X129960000Y-99370000D01*
D26*
%TO.N,D21*%
X129470000Y-85590000D02*
X127070000Y-83190000D01*
D25*
%TO.N,VCC*%
X134682103Y-100630000D02*
X131220000Y-100630000D01*
X129960000Y-99370000D02*
X129960000Y-90960000D01*
D26*
%TO.N,D19*%
X131960000Y-89252708D02*
X127667292Y-84960000D01*
D25*
%TO.N,VCC*%
X98095954Y-88802929D02*
X98095954Y-85460000D01*
X98095954Y-61364046D02*
X101670000Y-57790000D01*
D26*
%TO.N,D18*%
X132550000Y-95550000D02*
X130960000Y-93960000D01*
%TO.N,D19*%
X124530000Y-84030000D02*
X124530000Y-83190000D01*
X131960000Y-92460000D02*
X131960000Y-89252708D01*
%TO.N,D13*%
X104990000Y-53990000D02*
X106750000Y-55750000D01*
%TO.N,D14*%
X114630000Y-54990000D02*
X111830000Y-57790000D01*
%TO.N,D21*%
X137960000Y-111696000D02*
X130383000Y-119273000D01*
%TO.N,D18*%
X130960000Y-93960000D02*
X130960000Y-90460000D01*
%TO.N,D22*%
X136960000Y-89460000D02*
X136960000Y-85460000D01*
D25*
%TO.N,VCC*%
X81952897Y-82550000D02*
X79992897Y-80590000D01*
X79992897Y-80590000D02*
X76850000Y-80590000D01*
X76850000Y-80590000D02*
X74220000Y-83220000D01*
D26*
%TO.N,D13*%
X110690000Y-129190000D02*
X108190000Y-129190000D01*
D25*
%TO.N,VCC*%
X115084046Y-97720000D02*
X115084046Y-121815954D01*
%TO.N,+3.3V*%
X113318342Y-117818342D02*
X111510000Y-116010000D01*
X111510000Y-116010000D02*
X111510000Y-99990000D01*
D26*
%TO.N,D18*%
X78497897Y-87630000D02*
X80630000Y-87630000D01*
%TO.N,D13*%
X106430000Y-127430000D02*
X106430000Y-125390000D01*
%TO.N,D19*%
X85512708Y-98220000D02*
X87720000Y-98220000D01*
%TO.N,D18*%
X82220000Y-92720000D02*
X86720316Y-97220316D01*
%TO.N,D21*%
X77090000Y-92590000D02*
X77090000Y-95090000D01*
X75220000Y-80220000D02*
X75220000Y-71484000D01*
%TO.N,D19*%
X80220000Y-89720000D02*
X81220000Y-90720000D01*
X77220000Y-89720000D02*
X80220000Y-89720000D01*
X72775000Y-85275000D02*
X77220000Y-89720000D01*
%TO.N,D18*%
X91190000Y-99190000D02*
X91190000Y-99990000D01*
%TO.N,D19*%
X72775000Y-81090000D02*
X72775000Y-85275000D01*
%TO.N,D21*%
X79590000Y-97590000D02*
X83710000Y-97590000D01*
X77090000Y-95090000D02*
X79590000Y-97590000D01*
%TO.N,D19*%
X87720000Y-98220000D02*
X88650000Y-99150000D01*
D25*
%TO.N,VCC*%
X108145000Y-96145000D02*
X109720000Y-97720000D01*
X83220000Y-92220000D02*
X87145000Y-96145000D01*
D26*
%TO.N,D22*%
X76220000Y-97720000D02*
X78490000Y-99990000D01*
%TO.N,D18*%
X89220316Y-97220316D02*
X91190000Y-99190000D01*
D25*
%TO.N,VCC*%
X109720000Y-97720000D02*
X115084046Y-97720000D01*
X82797000Y-71527000D02*
X83220000Y-71950000D01*
D26*
%TO.N,Net-(Q1-B)*%
X78720000Y-92720000D02*
X79860000Y-92720000D01*
X72775000Y-88710000D02*
X74710000Y-88710000D01*
%TO.N,D18*%
X86720316Y-97220316D02*
X89220316Y-97220316D01*
%TO.N,D21*%
X75220000Y-90720000D02*
X77090000Y-92590000D01*
%TO.N,Net-(Q1-B)*%
X74710000Y-88710000D02*
X78720000Y-92720000D01*
%TO.N,D14*%
X98550000Y-131490000D02*
X98550000Y-128190000D01*
D25*
%TO.N,VCC*%
X81960000Y-82550000D02*
X83220000Y-83810000D01*
X87145000Y-96145000D02*
X108145000Y-96145000D01*
X74220000Y-83220000D02*
X74222897Y-83220000D01*
X83220000Y-71950000D02*
X83220000Y-83810000D01*
D26*
%TO.N,D21*%
X83710000Y-97590000D02*
X86110000Y-99990000D01*
D25*
%TO.N,VCC*%
X78497897Y-82550000D02*
X81960000Y-82550000D01*
X83220000Y-83810000D02*
X83220000Y-92220000D01*
D26*
%TO.N,D19*%
X81220000Y-93927292D02*
X85512708Y-98220000D01*
D25*
%TO.N,VCC*%
X115084046Y-94377071D02*
X115084046Y-97720000D01*
X115084046Y-121815954D02*
X111510000Y-125390000D01*
D26*
%TO.N,D18*%
X80630000Y-87630000D02*
X82220000Y-89220000D01*
%TO.N,D19*%
X88650000Y-99150000D02*
X88650000Y-99990000D01*
X81220000Y-90720000D02*
X81220000Y-93927292D01*
%TO.N,D13*%
X108190000Y-129190000D02*
X106430000Y-127430000D01*
%TO.N,D14*%
X98550000Y-128190000D02*
X101350000Y-125390000D01*
%TO.N,D21*%
X75220000Y-71484000D02*
X82797000Y-63907000D01*
%TO.N,D18*%
X82220000Y-89220000D02*
X82220000Y-92720000D01*
%TO.N,D22*%
X76220000Y-93720000D02*
X76220000Y-97720000D01*
%TD*%
M02*
